<?xml version="1.0" standalone="no"?><!DOCTYPE svg PUBLIC "-//W3C//DTD SVG 1.1//EN" "http://www.w3.org/Graphics/SVG/1.1/DTD/svg11.dtd">
<svg class="icon" width="27px" height="27px" viewBox="0 0 1024 1024" version="1.1" xmlns="http://www.w3.org/2000/svg">
	<path fill="#d81e06" d="M496 336v352l28.944 12.576 227.056-176v-25.152l-227.056-176L496 336z m32 32.928L710.112 512 528 655.072V368.928zM176 336v352l28.944 12.576 227.056-176v-25.152l-227.056-176L176 336z m32 32.928L390.112 512 208 655.072V368.928zM816 368h32v288h-32z"  />
	<path fill="#d81e06" d="M512 0C375.232 0 246.672 53.28 149.968 150 53.248 246.672-0.016 375.248-0.016 512s53.264 265.328 149.984 362.016C246.672 970.736 375.232 1024 512 1024c136.752 0 265.328-53.28 362.032-150 96.72-96.688 149.984-225.264 149.984-362.016s-53.264-265.328-149.984-362.016C777.328 53.264 648.752 0 512 0z m339.408 851.392C760.752 942.064 640.208 992 512 992c-128.224 0-248.752-49.936-339.408-140.624C81.92 760.736 31.984 640.208 31.984 512s49.936-248.736 140.608-339.392C263.248 81.936 383.776 32 512 32c128.208 0 248.752 49.952 339.408 140.624C942.08 263.264 992.016 383.792 992.016 512s-49.936 248.736-140.608 339.392z"  />
</svg>