<?xml version="1.0" standalone="no"?><!DOCTYPE svg PUBLIC "-//W3C//DTD SVG 1.1//EN" "http://www.w3.org/Graphics/SVG/1.1/DTD/svg11.dtd">
<svg class="icon" width="21px" height="21px" viewBox="0 0 1024 1024" version="1.1" xmlns="http://www.w3.org/2000/svg">
	<path fill="#d81e06" d="M543.591288 1024V0L236.934658 306.65663H38.130684v410.68674h198.803974L543.591288 1024zM69.721972 338.247918h180.291479L512 76.261369v871.477262L250.013451 685.752082H69.721972V338.247918zM654.160795 654.160795v31.591287c95.80058 0 173.752082-77.951502 173.752082-173.752082s-77.951502-173.752082-173.752082-173.752082v31.591287c78.377985 0 142.160795 63.78281 142.160794 142.160795s-63.78281 142.160795-142.160794 142.160795z"  />
	<path fill="#d81e06" d="M654.160795 843.708521c182.913556 0 331.708521-148.794965 331.708521-331.708521s-148.794965-331.708521-331.708521-331.708521v31.591288c165.490961 0 300.117233 134.626273 300.117233 300.117233s-134.626273 300.117233-300.117233 300.117233v31.591288z"  />
</svg>