<?xml version="1.0" standalone="no"?>
<!DOCTYPE svg PUBLIC "-//W3C//DTD SVG 1.1//EN" "http://www.w3.org/Graphics/SVG/1.1/DTD/svg11.dtd">
<svg t="1552736468347" class="icon" style="" viewBox="0 0 1024 1024" version="1.1" xmlns="http://www.w3.org/2000/svg" p-id="4199" xmlns:xlink="http://www.w3.org/1999/xlink" width="16" height="16">
<defs>
<style type="text/css"></style>
</defs>
<path d="M98.7008 380.213333l205.397333-136.930133c13.2224-8.814933 13.258667-28.2304 0.0704-37.0944L98.7712 68.117333C83.944533 58.148267 64 68.7744 64 86.638933V361.642667c0 17.826133 19.867733 28.458667 34.7008 18.570666zM416 256h512c17.6 0 32-14.4 32-32s-14.4-32-32-32H416c-17.6 0-32 14.4-32 32s14.4 32 32 32zM928 896H96c-17.6 0-32 14.4-32 32s14.4 32 32 32h832c17.6 0 32-14.4 32-32s-14.4-32-32-32zM928 544H96c-17.6 0-32 14.4-32 32s14.4 32 32 32h832c17.6 0 32-14.4 32-32s-14.4-32-32-32z" fill="" p-id="4200">
</path>
</svg>