<?xml version="1.0" standalone="no"?>
<!DOCTYPE svg PUBLIC "-//W3C//DTD SVG 1.1//EN" "http://www.w3.org/Graphics/SVG/1.1/DTD/svg11.dtd">
<svg t="1553005352119"  width="64" height="64" class="icon" style="" viewBox="0 0 1024 1024" version="1.1" xmlns="http://www.w3.org/2000/svg" p-id="2542" xmlns:xlink="http://www.w3.org/1999/xlink">
<defs><style type="text/css"></style></defs>
<path d="M717.72292 66.790172 310.008055 66.790172c-48.50676 0-87.971587 39.534412-87.971587 88.1302l0 48.489364 0 583.991638 0 78.821183c0 48.52518 39.463804 87.986937 87.971587 87.986937l407.714865 0c48.594765 0 88.1302-39.461757 88.1302-87.986937l0-78.821183L805.85312 203.409736l0-48.489364C805.85312 106.325607 766.317685 66.790172 717.72292 66.790172M276.401656 257.772878l475.086276 0L751.487931 733.038232 276.401656 733.038232 276.401656 257.772878zM751.487931 866.222557c0 18.545378-15.148002 33.622772-33.765011 33.622772L310.008055 899.845329c-18.527982 0-33.606399-15.077394-33.606399-33.622772l0-78.821183 475.086276 0L751.487931 866.222557zM276.401656 203.409736l0-48.489364c0-18.61701 15.078417-33.766035 33.606399-33.766035l407.714865 0c18.61701 0 33.765011 15.149025 33.765011 33.766035l0 48.489364L276.401656 203.409736zM513.963213 893.085368c27.323299 0 49.480948-22.155603 49.480948-49.514717 0-27.324322-22.156626-49.479925-49.480948-49.479925-27.359115 0-49.498344 22.154579-49.498344 49.479925C464.464869 870.929766 486.603075 893.085368 513.963213 893.085368M546.667056 153.751756l-65.426105 0c-6.813173 0-12.33391 5.52176-12.33391 12.317537 0 6.830569 5.520737 12.352329 12.33391 12.352329l65.426105 0c6.795776 0 12.351306-5.52176 12.351306-12.352329C559.018362 159.273517 553.461809 153.751756 546.667056 153.751756" p-id="2543" fill="#8a8a8a">
</path>
</svg>